<?xml version="1.0" standalone="no"?>
<!DOCTYPE svg PUBLIC "-//W3C//DTD SVG 20010904//EN"
 "http://www.w3.org/TR/2001/REC-SVG-20010904/DTD/svg10.dtd">
<svg version="1.0" xmlns="http://www.w3.org/2000/svg"
 width="900.000000pt" height="900.000000pt" viewBox="0 0 900.000000 900.000000"
 preserveAspectRatio="xMidYMid meet">
<metadata>
Created by potrace 1.11, written by Peter Selinger 2001-2013
</metadata>
<g transform="translate(0.000000,900.000000) scale(0.100000,-0.100000)"
fill="#000000" stroke="none">
<path d="M0 4500 l0 -4500 4500 0 4500 0 0 4500 0 4500 -4500 0 -4500 0 0
-4500z m4950 3760 c489 -29 954 -146 1408 -354 227 -104 491 -267 696 -430
177 -141 448 -404 445 -433 0 -4 -122 -114 -271 -243 -255 -221 -936 -815
-1077 -939 -116 -102 -176 -150 -186 -151 -5 0 -20 13 -33 30 -69 87 -293 250
-442 322 -523 252 -1103 230 -1583 -59 -388 -233 -642 -599 -733 -1058 -28
-137 -25 -415 5 -555 75 -353 209 -591 479 -852 184 -177 356 -280 606 -363
183 -61 317 -78 546 -72 138 4 221 11 285 25 112 24 281 80 380 126 190 88
421 272 537 429 31 42 56 66 64 63 12 -4 102 -66 529 -361 153 -106 326 -225
385 -266 36 -25 166 -115 290 -201 124 -85 279 -192 345 -238 163 -112 154
-100 114 -152 -545 -703 -1330 -1184 -2229 -1368 -261 -53 -401 -65 -750 -65
-271 1 -337 4 -475 23 -941 132 -1863 640 -2421 1333 -346 431 -596 947 -718
1486 -77 338 -100 766 -62 1123 57 531 255 1084 548 1532 443 678 1093 1187
1858 1456 489 172 968 242 1460 212z"/>
</g>
</svg>
